<svg id="圖層_1" data-name="圖層 1" xmlns="http://www.w3.org/2000/svg" viewBox="0 0 165.51 48.77"><text transform="translate(46.16 34.14)" style="font-size:27.1861515045166px;fill:#353535;font-family:NotoSerifTC-Light-83pv-RKSJ-H, Noto Serif TC;letter-spacing:0.050002480114706885em">窗台植男</text><path d="M21.44,41.12a4.41,4.41,0,0,1,3.2-2.56c2.55-.64,5.54-.21,6-1.28,0,0,2.28.71,1-3.41s-2.7-4.55-3.27-6.25-.85-1.85-.43-2.56l.71-1.56c.57-.57,1.92-.71,3.38,2.13s3.73,7.39,1.17,9.52c0,0,5.12-5.4,5.54-6.11a3,3,0,0,0-.33-2.1c-.41-1-6.47-7.42-8.25-8.13s.2-1.71.91-1.85,4.12,2.7,5.26,4.4c0,0,2.28,4,2.5,5.21.92-2,2.79-6.18,2.31-8.63s-2.4-5.65-2.77-6.82-2.45-6-6.23-4.43-3.89,2.08-4.05,3.25a5.54,5.54,0,0,1-1,2.88c-.58.69-1.12.85-1.44-1.22s.06-2.83-.31-3.52S22.82,2.27,15.2,4.24c-2.5.21-3.41.64-4,1.23A11.35,11.35,0,0,0,9,8.24c-.26.69-2.08,2.61-2.56,3.73A25.24,25.24,0,0,0,5,16.18L5,16.87c1-.59,1.28-2,2.88-2.4s2-.26,4.05-.16,2.88.38,4.26.06a5.28,5.28,0,0,1,3.15,0c1.28.32,2,1.49.8,1.54s-6.29.37-7.46.59a32.84,32.84,0,0,0-4.85.9l-2.56,1S4.55,22.41,5,23.64a3.77,3.77,0,0,1,.27,2.77c-.32.59,1-1,2.45-1.92a24.3,24.3,0,0,1,5.86-3.25c2.61-.91,3.52-1.49,4.64-1.44s3.09.75,1.38,1.87-6.6,3.41-7.94,5S8,30,7.85,30.67s.75,2.08,1.28,2.83A28.61,28.61,0,0,0,12,37a3.22,3.22,0,0,0,1.49.8,4.15,4.15,0,0,1-1.12-3.51c.21-2.4.59-4.21,2.4-5.55s2.77-1.86,3.67-1.86,2.08.16,1,2.08a85.48,85.48,0,0,0-4.05,7.56c-.48,1.34-.58,1.23.11,1.55s5.44,1,5.76,2.29S23,20.16,25.7,14.47" style="fill:none;stroke:#3a3a3a;stroke-miterlimit:10;stroke-width:0.8px"/><path d="M41,20.56a10.08,10.08,0,0,0,.9-3.83,3.65,3.65,0,0,0-.52-3.39A9,9,0,0,0,28.82,8.23a9.89,9.89,0,0,0-1.54.86A10.11,10.11,0,0,0,25.63,9a8.81,8.81,0,0,0-.91-.3,8,8,0,0,0-4.5.06,7.74,7.74,0,0,0-9.52,2.36A8.92,8.92,0,0,0,9.19,19C4.55,25,4.44,34,11,39.26c.23.18.45.33.68.49a10.69,10.69,0,0,0,1.11,1.54,9.82,9.82,0,0,0,13.11,1.62,11.73,11.73,0,0,0,1.93-1.6,5.12,5.12,0,0,0,.75-.36,22.8,22.8,0,0,0,7.29-6.69A4.32,4.32,0,0,0,38.68,32a14.66,14.66,0,0,0,1.55-10.33A3.81,3.81,0,0,0,41,20.56ZM26.31,22.7a3.63,3.63,0,0,0-3.37,1.17l0,0a7.77,7.77,0,0,0-1-.93,7.35,7.35,0,0,0,.67-.79,5.6,5.6,0,0,0,3.48.29Z" style="fill:#58b78e;opacity:0.33"/></svg>